<svg width="44" height="40" xmlns="http://www.w3.org/2000/svg" xmlns:xlink="http://www.w3.org/1999/xlink" xml:space="preserve" overflow="hidden"><defs><clipPath id="clip0"><rect x="748" y="349" width="44" height="40"/></clipPath><clipPath id="clip1"><rect x="748" y="350" width="43" height="39"/></clipPath><clipPath id="clip2"><rect x="750" y="350" width="40" height="39"/></clipPath><clipPath id="clip3"><rect x="750" y="350" width="40" height="39"/></clipPath><clipPath id="clip4"><rect x="750" y="350" width="40" height="39"/></clipPath></defs><g clip-path="url(#clip0)" transform="translate(-748 -349)"><g clip-path="url(#clip1)"><g clip-path="url(#clip2)"><g clip-path="url(#clip3)"><g clip-path="url(#clip4)"><path d="M528.588 238.403C531.173 238.524 533.67 239.658 535.485 241.664L533.587 243.401C531.535 241.133 528.308 240.368 525.464 241.473 522.621 242.579 520.747 245.329 520.747 248.394L520.755 248.394 520.755 257.3 529.961 263.018 528.816 264.881 518.181 258.275 518.295 258.088 518.181 258.088 518.181 248.394C518.181 244.262 520.707 240.557 524.539 239.066 525.498 238.693 526.488 238.479 527.477 238.414 527.848 238.39 528.22 238.386 528.588 238.403Z" fill="#FFFFFF" fill-rule="evenodd" fill-opacity="1" transform="matrix(1.00453 0 0 1 237.623 111.608)"/><path d="M546.568 246.512C547.772 248.808 548.058 251.537 547.251 254.115L544.798 253.346C545.711 250.432 544.738 247.256 542.349 245.354 539.961 243.451 536.648 243.212 534.012 244.754L534.016 244.76 526.358 249.238 526.093 261.116 523.914 260.02 524.219 247.502 524.436 247.506 524.378 247.408 532.715 242.535C536.269 240.457 540.733 240.778 543.951 243.343 544.755 243.984 545.441 244.732 545.997 245.555 546.206 245.864 546.397 246.183 546.568 246.512Z" fill="#FFFFFF" fill-rule="evenodd" fill-opacity="1" transform="matrix(1.00453 0 0 1 237.623 111.608)"/><path d="M548.034 266.09C546.654 268.285 544.439 269.905 541.805 270.503L541.236 267.997C544.214 267.32 546.47 264.883 546.913 261.862 547.356 258.84 545.898 255.857 543.239 254.353L543.235 254.36 535.514 249.991 525.113 255.736 524.965 253.3 535.94 247.269 536.044 247.46 536.1 247.36 544.505 252.116C548.087 254.143 550.054 258.163 549.457 262.234 549.306 263.253 549.004 264.222 548.573 265.116 548.411 265.452 548.231 265.778 548.034 266.09Z" fill="#FFFFFF" fill-rule="evenodd" fill-opacity="1" transform="matrix(1.00453 0 0 1 237.623 111.608)"/><path d="M531.999 277.382C529.414 277.261 526.917 276.132 525.102 274.137L527 272.409C529.052 274.665 532.279 275.428 535.123 274.327 537.966 273.228 539.84 270.491 539.84 267.441L539.832 267.441 539.832 258.579 529.728 252.365 531.771 251.038 542.406 257.612 542.292 257.795 542.406 257.795 542.406 267.441C542.406 271.552 539.88 275.239 536.048 276.722 535.089 277.093 534.099 277.307 533.11 277.371 532.739 277.395 532.367 277.399 531.999 277.382Z" fill="#FFFFFF" fill-rule="evenodd" fill-opacity="1" transform="matrix(1.00453 0 0 1 237.623 111.608)"/><path d="M514.012 269.191C512.825 266.886 512.555 264.155 513.378 261.583L515.828 262.367C514.896 265.276 515.848 268.457 518.224 270.375 520.601 272.293 523.911 272.553 526.557 271.027L526.553 271.021 534.241 266.591 534.581 254.715 536.753 255.825 536.368 268.341 536.151 268.335 536.209 268.434 527.84 273.256C524.274 275.309 519.813 274.961 516.61 272.376 515.809 271.729 515.129 270.977 514.578 270.15 514.37 269.84 514.182 269.519 514.012 269.191Z" fill="#FFFFFF" fill-rule="evenodd" fill-opacity="1" transform="matrix(1.00453 0 0 1 237.623 111.608)"/><path d="M512.528 249.537C513.94 247.364 516.178 245.775 518.82 245.214L519.352 247.729C516.365 248.362 514.075 250.767 513.589 253.782 513.102 256.797 514.518 259.8 517.155 261.343L517.159 261.335 524.818 265.814 535.298 260.218 535.411 262.655 524.353 268.529 524.25 268.337 524.193 268.436 515.857 263.561C512.304 261.484 510.394 257.436 511.05 253.372 511.214 252.357 511.531 251.392 511.975 250.504 512.142 250.171 512.327 249.848 512.528 249.537Z" fill="#FFFFFF" fill-rule="evenodd" fill-opacity="1" transform="matrix(1.00453 0 0 1 237.623 111.608)"/></g></g></g></g></g></svg>