<svg width="96" height="96" xmlns="http://www.w3.org/2000/svg" xmlns:xlink="http://www.w3.org/1999/xlink" xml:space="preserve" overflow="hidden"><defs><clipPath id="clip0"><rect x="0" y="0" width="96" height="96"/></clipPath></defs><g clip-path="url(#clip0)"><path d="M78.547 22.841C67.9406 21.9961 58.0504 17.1565 50.875 9.3 49.5224 7.73234 47.1551 7.55798 45.5874 8.91056 45.4482 9.03065 45.3181 9.16082 45.198 9.3 38.0226 17.1565 28.1324 21.9961 17.526 22.841 15.5551 23.0257 14.0531 24.6875 14.068 26.667L14.068 36.32C14.068 57.306 27.415 76.503 45.947 88.382 47.2199 89.2 48.8531 89.2 50.126 88.382 68.658 76.5 82.005 57.306 82.005 36.32L82.005 26.667C82.0199 24.6875 80.5179 23.0257 78.547 22.841ZM75.505 36.32C75.505 53.02 65.556 69.867 48.891 81.396L48.037 81.987 47.184 81.396C30.518 69.866 20.567 53.015 20.567 36.32L20.567 29.069 21.831 28.869C31.2481 27.3799 40.0132 23.1346 47.02 16.669L48.036 15.733 49.053 16.669C56.0595 23.1346 64.8242 27.3799 74.241 28.869L75.505 29.069Z" fill="#3B91E6" fill-rule="nonzero" fill-opacity="1"/><path d="M48.036 19.788C41.0929 25.8603 32.6391 29.9454 23.567 31.612L23.567 36.32C23.567 51.747 32.694 67.383 48.037 78.33 63.378 67.385 72.505 51.748 72.505 36.32L72.505 31.612C63.4329 29.9454 54.9791 25.8603 48.036 19.788ZM45.468 58.833 35.356 48.72 38.792 45.284 45.468 51.96 59.14 38.288 62.576 41.725Z" fill="#3B91E6" fill-rule="nonzero" fill-opacity="1"/></g></svg>