<svg width="96" height="96" xmlns="http://www.w3.org/2000/svg" xmlns:xlink="http://www.w3.org/1999/xlink" xml:space="preserve" overflow="hidden"><defs><clipPath id="clip0"><rect x="0" y="0" width="96" height="96"/></clipPath></defs><g clip-path="url(#clip0)"><path d="M48 20C49.1 20 50 20.9 50 22 50 23.1 49.1 24 48 24 46.9 24 46 23.1 46 22 46 20.9 46.9 20 48 20ZM60 80C60 78.9 59.1 78 58 78L51 78 51 27.2C51.9 26.7 52.7 25.9 53.2 25L72.4 25 66.8 54 70.9 54 75.3 31.2 80.9 54 85 54 77.7 25 79 25C80.7 25 82 23.7 82 22 82 20.3 80.7 19 79 19L53.2 19C52.7 18.1 51.9 17.3 51 16.8L51 11C51 9.3 49.7 8 48 8 46.3 8 45 9.3 45 11L45 16.8C44.1 17.3 43.3 18.1 42.8 19L17 19C15.3 19 14 20.3 14 22 14 23.4 15 24.7 16.4 24.9L10.7 54 14.8 54 19.2 31.2 24.9 54 29 54 21.7 25 42.7 25C43.2 25.9 44 26.7 44.9 27.2L44.9 78 37.9 78C36.8 78 35.9 78.9 35.9 80L35.9 82 24 82 24 88 72 88 72 82 60 82 60 80Z" fill="#3B91E6" fill-rule="nonzero" fill-opacity="1"/><path d="M32 57 8 57C8 60.3 13.4 63 20 63 26.6 63 32 60.3 32 57Z" fill="#3B91E6" fill-rule="nonzero" fill-opacity="1"/><path d="M64 57C64 60.3 69.4 63 76 63 82.6 63 88 60.3 88 57L64 57Z" fill="#3B91E6" fill-rule="nonzero" fill-opacity="1"/></g></svg>