<svg width="96" height="96" xmlns="http://www.w3.org/2000/svg" xmlns:xlink="http://www.w3.org/1999/xlink" xml:space="preserve" overflow="hidden"><defs><clipPath id="clip0"><rect x="0" y="0" width="96" height="96"/></clipPath></defs><g clip-path="url(#clip0)"><path d="M61.9 62.4C69.7 54.9 70.1 42.5 62.7 34.5 70.6 38.6 77.1 44.9 80.9 49.1 76.9 53 70.1 58.8 61.9 62.4ZM22.6 41.8C25.9 39 29.4 36.6 33.2 34.6 25.9 42.6 26.3 54.9 34.1 62.4 25.9 58.8 19 53 15.1 49.1 17.4 46.5 19.9 44.1 22.6 41.8ZM48 64C39.2 64 32 56.8 32 48 32 39.2 39.2 32 48 32 56.8 32 64 39.2 64 48 64 56.8 56.8 64 48 64ZM86.9 46.3C81.1 39.5 65.9 24 48 24 30.1 24 14.9 39.5 9.1 46.3 7.6 48.1 7.7 50.6 9.3 52.3 15.2 58.5 30.3 72 48 72 65.7 72 80.8 58.5 86.8 52.3 88.3 50.7 88.4 48.1 86.9 46.3Z" stroke="#4472C4" stroke-width="1" stroke-linecap="butt" stroke-linejoin="miter" stroke-miterlimit="4" stroke-opacity="1" fill="#0E78D4" fill-rule="nonzero" fill-opacity="1"/><path d="M58 48C58 53.5228 53.5228 58 48 58 42.4772 58 38 53.5228 38 48 38 42.4772 42.4772 38 48 38 53.5228 38 58 42.4772 58 48Z" stroke="#4472C4" stroke-width="1" stroke-linecap="butt" stroke-linejoin="miter" stroke-miterlimit="4" stroke-opacity="1" fill="#0E78D4" fill-rule="nonzero" fill-opacity="1"/></g></svg>