<svg width="96" height="96" xmlns="http://www.w3.org/2000/svg" xmlns:xlink="http://www.w3.org/1999/xlink" xml:space="preserve" overflow="hidden"><defs><clipPath id="clip0"><rect x="0" y="0" width="96" height="96"/></clipPath></defs><g clip-path="url(#clip0)"><path d="M92 51C92.0109 48.8019 90.2378 47.0112 88.0398 47.0003 87.2957 46.9966 86.5655 47.2016 85.932 47.592L68.832 57.369C69.0629 58.4816 69.0557 59.6304 68.811 60.74 67.9139 64.4537 64.5661 67.0522 60.746 67L43 67 43 63 61 63C63.2091 63 65 61.2091 65 59 65 56.7909 63.2091 55 61 55L37 55C35.3314 55.0004 33.6962 55.4673 32.279 56.348L4 70 18 84C24.469 77.531 32.875 75 42 75L60.69 75C61.541 74.9999 62.3699 74.7284 63.056 74.225L90.523 54.08C91.4543 53.3284 91.9969 52.1968 92 51Z" stroke="#4472C4" stroke-width="1" stroke-linecap="butt" stroke-linejoin="miter" stroke-miterlimit="4" stroke-opacity="1" fill="#3B91E6" fill-rule="nonzero" fill-opacity="1"/><path d="M52 20.715C45.7 8.215 35 15.715 35 22.715 35 33.215 52 46.215 52 46.215 52 46.215 69 33.215 69 22.715 69 15.715 58.3 8.215 52 20.715Z" stroke="#4472C4" stroke-width="1" stroke-linecap="butt" stroke-linejoin="miter" stroke-miterlimit="4" stroke-opacity="1" fill="#3B91E6" fill-rule="nonzero" fill-opacity="1"/></g></svg>