<svg width="96" height="96" xmlns="http://www.w3.org/2000/svg" xmlns:xlink="http://www.w3.org/1999/xlink" xml:space="preserve" overflow="hidden"><defs><clipPath id="clip0"><rect x="0" y="0" width="96" height="96"/></clipPath></defs><g clip-path="url(#clip0)"><path d="M38.72 70.51C38.043 72.5076 36.2164 73.8904 34.11 74L8 74C4.4183 73.6287 1.81576 70.4241 2.18707 66.8424 2.55838 63.2607 5.76292 60.6582 9.34463 61.0295 9.45006 61.0404 9.55522 61.0539 9.66 61.07 9.75393 56.7135 13.3617 53.258 17.7182 53.3519 20.5554 53.4131 23.1412 54.9932 24.49 57.49 27.9115 56.3854 31.5806 58.2637 32.6852 61.6852 32.8932 62.3297 32.9995 63.0027 33 63.68L33 63.79C34.497 63.5209 36.0357 63.9396 37.19 64.93 38.7905 66.3038 39.396 68.512 38.72 70.51Z" stroke="#4472C4" stroke-width="1" stroke-linecap="butt" stroke-linejoin="miter" stroke-miterlimit="4" stroke-opacity="1" fill="#0E78D4" fill-rule="nonzero" fill-opacity="1"/><path d="M92.21 59.93C91.0509 58.9336 89.5035 58.5146 88 58.79L88 58.68C88.0007 55.0846 85.0867 52.1694 81.4913 52.1687 80.8048 52.1685 80.1226 52.277 79.47 52.49 77.3989 48.6561 72.612 47.2271 68.7781 49.2982 66.2813 50.647 64.7012 53.2328 64.64 56.07 61.0837 55.5051 57.7428 57.9302 57.178 61.4865 56.6131 65.0428 59.0382 68.3837 62.5945 68.9486 62.7291 68.9699 62.8643 68.9871 63 69L89.11 69C91.961 68.8427 94.1446 66.4039 93.9872 63.553 93.9101 62.1544 93.2687 60.847 92.21 59.93Z" stroke="#4472C4" stroke-width="1" stroke-linecap="butt" stroke-linejoin="miter" stroke-miterlimit="4" stroke-opacity="1" fill="#0E78D4" fill-rule="nonzero" fill-opacity="1"/><path d="M62.35 50.18C63.05 49.003 63.9463 47.9546 65 47.08 57.3026 37.679 43.4416 36.298 34.0406 43.9955 31.0623 46.434 28.776 49.6113 27.41 53.21 28.7598 53.3257 30.0741 53.7027 31.28 54.32 34.993 45.0983 45.4786 40.6326 54.7003 44.3455 57.725 45.5634 60.3622 47.58 62.33 50.18Z" stroke="#4472C4" stroke-width="1" stroke-linecap="butt" stroke-linejoin="miter" stroke-miterlimit="4" stroke-opacity="1" fill="#0E78D4" fill-rule="nonzero" fill-opacity="1"/><path d="M48 27C60.924 27.0049 72.7278 34.3367 78.46 45.92 79.5116 46.5228 80.4657 47.2814 81.29 48.17L81.5 48.17C82.2945 48.1681 83.0865 48.2587 83.86 48.44 76.925 28.6321 55.2455 18.1966 35.4377 25.1317 23.5809 29.2829 14.542 39.0258 11.29 51.16 12.3612 50.4888 13.5326 49.9926 14.76 49.69 15.18 49.59 15.6 49.52 16.02 49.46 20.8952 35.9924 33.6772 27.0155 48 27Z" stroke="#4472C4" stroke-width="1" stroke-linecap="butt" stroke-linejoin="miter" stroke-miterlimit="4" stroke-opacity="1" fill="#0E78D4" fill-rule="nonzero" fill-opacity="1"/><path d="M48 35C56.0313 35.0057 63.6093 38.7227 68.53 45.07 68.9332 44.9223 69.3438 44.7955 69.76 44.69 70.6768 44.4674 71.6166 44.3533 72.56 44.35L72.96 44.35C63.7667 30.5659 45.1399 26.8444 31.3559 36.0377 26.3711 39.3622 22.496 44.1033 20.23 49.65 21.5381 49.9514 22.7858 50.472 23.92 51.19 27.9088 41.3997 37.4283 34.9993 48 35Z" stroke="#4472C4" stroke-width="1" stroke-linecap="butt" stroke-linejoin="miter" stroke-miterlimit="4" stroke-opacity="1" fill="#0E78D4" fill-rule="nonzero" fill-opacity="1"/></g></svg>